<svg version="1.1" id="Layer_1" xmlns="http://www.w3.org/2000/svg" xmlns:xlink="http://www.w3.org/1999/xlink" x="0px" y="0px"
	 width="100%" viewBox="0 0 640 640" enable-background="new 0 0 640 640" xml:space="preserve">
<path fill="#16BE63" opacity="1.000000" stroke="none" 
	d="
M284.000000,641.000000 
	C189.333344,641.000000 95.166702,641.000000 1.000038,641.000000 
	C1.000025,427.666718 1.000025,214.333450 1.000013,1.000082 
	C107.666595,1.000000 214.333191,1.000000 320.999786,1.000000 
	C427.666412,1.000000 534.333069,1.000000 640.999756,1.000000 
	C640.999878,214.333206 640.999878,427.666412 640.999939,640.999817 
	C522.166687,641.000000 403.333344,641.000000 284.000000,641.000000 
M165.797287,231.180466 
	C163.210236,231.062393 160.623199,230.944321 157.101273,230.947495 
	C149.055161,230.910645 141.009033,230.873779 132.438477,230.425125 
	C128.399307,228.658600 126.138916,230.328812 125.106697,234.264862 
	C123.844864,239.076431 122.444443,243.862396 121.458160,248.731201 
	C120.916649,251.404388 121.103554,254.225128 120.933151,257.646545 
	C120.808807,258.071167 120.684464,258.495758 119.972687,259.242065 
	C117.021820,270.591797 114.037300,281.932922 111.139297,293.296143 
	C110.191986,297.010590 109.469810,300.782440 108.644669,304.528076 
	C108.083160,304.516815 107.521652,304.505554 106.960136,304.494324 
	C106.339493,302.557465 105.501694,300.660553 105.136642,298.676666 
	C103.724350,291.001495 102.629387,283.265503 101.107819,275.613464 
	C98.520569,262.602020 95.587791,249.659103 93.020699,236.643890 
	C91.534348,229.108047 88.429100,227.460968 80.102432,230.955185 
	C73.387154,230.914383 66.671867,230.873581 59.553520,230.318222 
	C54.683289,228.970871 52.677071,230.353653 53.490116,235.065491 
	C54.134174,238.797989 55.656910,242.371353 56.661400,246.050354 
	C65.777435,279.438202 74.933090,312.815643 83.865479,346.252655 
	C84.850227,349.938904 86.585724,351.064911 90.104095,351.021423 
	C99.928268,350.900055 109.754982,350.984589 119.580696,350.987640 
	C127.138191,350.989990 129.150055,348.847321 130.808258,341.499573 
	C134.904922,323.346527 139.381470,305.278900 143.784760,287.196259 
	C144.042938,286.136108 145.004684,285.247284 146.348679,283.195160 
	C147.395432,286.309509 148.136780,288.093750 148.596420,289.947815 
	C153.196976,308.504669 157.838120,327.052399 162.248535,345.654694 
	C163.183807,349.599487 164.975418,351.126831 169.084335,351.071350 
	C179.733994,350.927612 190.389557,351.259155 201.041275,351.186005 
	C202.365585,351.176910 203.680969,349.869049 204.973190,349.022614 
	C204.973190,349.022614 205.107254,348.972809 205.737518,348.723358 
	C206.195358,347.857086 206.828995,347.039337 207.083771,346.116974 
	C209.562164,337.144806 211.968369,328.152740 214.411972,319.170898 
	C220.217346,297.832153 226.033722,276.496399 231.841599,255.158340 
	C233.719406,248.259369 235.732864,241.392395 237.393616,234.441330 
	C238.237122,230.910812 236.841675,229.181686 232.341248,230.954498 
	C231.881226,230.915909 231.421219,230.877319 230.654251,230.492111 
	C230.113327,230.606247 229.572388,230.720383 228.096954,230.951965 
	C221.384048,230.912460 214.671143,230.872971 207.521881,230.382919 
	C203.617477,228.578705 201.550034,230.380005 200.484192,234.020554 
	C200.064865,235.452881 199.738037,236.916992 199.451614,238.382767 
	C196.811523,251.894272 194.066437,265.387115 191.623856,278.934418 
	C190.669785,284.226013 190.407562,289.642395 189.834427,295.629120 
	C189.727875,296.031555 189.621307,296.433990 189.038696,297.088074 
	C188.989334,298.050354 188.939987,299.012634 188.895370,300.630280 
	C188.792511,301.053101 188.689667,301.475891 188.058716,302.189026 
	C187.345947,302.941406 186.633179,303.693817 185.367920,305.029419 
	C184.377472,301.285889 183.729462,298.250153 182.755722,295.322754 
	C181.800430,292.450867 180.513947,289.689117 179.158752,286.278961 
	C179.118011,285.857605 179.077286,285.436218 179.390045,284.382690 
	C179.389328,283.397156 179.576782,282.368011 179.359818,281.432617 
	C175.762970,265.926544 172.148056,250.424316 168.410538,234.951828 
	C168.141953,233.839951 166.895004,232.964386 166.012329,231.960968 
	C166.012329,231.960968 166.030869,231.870438 165.797287,231.180466 
M281.223236,232.832840 
	C276.343567,235.313461 271.027588,237.195526 266.660400,240.379135 
	C248.534393,253.592728 242.542877,272.473755 243.510376,293.903595 
	C244.582916,317.660034 254.279526,336.811981 277.097198,346.246490 
	C300.023987,355.726074 322.513031,354.053680 342.605591,338.214264 
	C351.262177,331.390137 356.873199,322.272644 359.778778,310.702393 
	C357.558228,310.564972 355.973633,310.387390 354.388458,310.381866 
	C344.893829,310.348877 335.397369,310.455139 325.905334,310.292419 
	C322.768860,310.238678 320.826233,311.178894 318.950043,313.877991 
	C313.791870,321.298615 303.427979,323.877655 294.245148,320.531281 
	C285.592773,317.378204 279.965942,309.006287 280.577820,299.697296 
	C281.943115,299.567230 283.381775,299.318024 284.821533,299.311829 
	C292.316986,299.279694 299.812744,299.316132 307.308380,299.316254 
	C323.965790,299.316559 340.623199,299.294952 357.280548,299.320190 
	C359.930511,299.324188 362.315430,299.339722 362.554565,295.703552 
	C363.771088,277.207275 360.662842,259.871765 346.966644,246.346146 
	C328.417358,228.027863 305.977448,226.117599 281.223236,232.832840 
M414.516693,348.867767 
	C438.526031,354.719177 460.556732,352.080811 478.627869,333.474030 
	C484.690399,327.231781 488.864502,319.827576 490.791840,310.399841 
	C478.052887,310.399841 466.115204,310.311768 454.183197,310.531860 
	C452.947205,310.554657 451.470612,312.211182 450.572327,313.448486 
	C445.239014,320.794800 437.849731,322.812683 429.383942,321.502167 
	C420.687744,320.155945 415.003754,314.985260 412.295959,306.618835 
	C410.233063,300.244934 410.858368,299.350891 417.458191,299.344391 
	C440.940155,299.321289 464.422241,299.304016 487.903961,299.378448 
	C491.281281,299.389160 493.338867,298.985840 493.762390,294.745728 
	C497.184448,260.486664 476.877258,233.870865 442.717407,229.822906 
	C407.176819,225.611298 378.589539,245.649704 374.937195,282.054871 
	C371.774017,313.584290 385.788269,339.330017 414.516693,348.867767 
M421.584473,440.238129 
	C402.479767,453.445801 381.349915,458.160889 358.431091,455.177948 
	C322.800995,450.540588 290.861420,421.991577 289.568390,386.993225 
	C289.453949,383.895660 287.823669,383.120361 285.036682,383.164032 
	C277.874542,383.276215 270.696472,383.482239 263.550415,383.130432 
	C258.688812,382.891113 257.274384,384.406403 257.677429,389.329956 
	C260.178253,419.878204 273.876709,444.487366 297.914520,462.900360 
	C343.101349,497.513611 403.692291,496.407471 447.570374,460.114594 
	C470.019836,441.545990 482.646637,417.369690 484.257446,387.871033 
	C484.443634,384.460968 483.564240,383.038971 479.928345,383.140106 
	C472.437134,383.348450 464.934509,383.295593 457.439850,383.164459 
	C454.261017,383.108856 452.659180,383.919861 452.396942,387.515533 
	C450.773102,409.784302 439.677002,426.675415 421.584473,440.238129 
M549.359863,317.500488 
	C549.359863,275.930267 549.359863,234.360077 549.359863,192.335617 
	C538.514648,192.335617 528.528931,192.572723 518.563049,192.232635 
	C513.793274,192.069855 512.767456,193.805649 512.783936,198.264114 
	C512.942566,241.075195 512.889221,283.887054 512.895630,326.698700 
	C512.896545,333.028656 513.028198,339.362762 512.835876,345.686920 
	C512.734314,349.026642 514.073730,350.036835 517.245117,349.953186 
	C523.570923,349.786346 529.904053,349.899414 536.234192,349.897888 
	C540.470703,349.896881 544.707275,349.897705 549.359741,349.897705 
	C549.359741,338.772461 549.359741,328.636475 549.359863,317.500488 
z"/>
<path fill="#F7FDFA" opacity="1.000000" stroke="none" 
	d="
M179.036530,285.014862 
	C179.077286,285.436218 179.118011,285.857605 179.183350,286.973389 
	C181.180496,295.925201 183.153046,304.182556 185.125595,312.439941 
	C185.666687,312.415924 186.207779,312.391937 186.748871,312.367920 
	C187.361526,308.878174 187.974167,305.388458 188.586823,301.898712 
	C188.689667,301.475891 188.792511,301.053101 189.093735,300.033997 
	C189.366318,298.570587 189.440521,297.703522 189.514740,296.836426 
	C189.621307,296.433990 189.727875,296.031555 190.056854,295.006165 
	C194.072937,275.336182 197.996536,256.313324 201.555466,237.222504 
	C202.307404,233.188950 203.761261,230.908203 207.958237,230.833466 
	C214.671143,230.872971 221.384048,230.912460 228.722015,231.045563 
	C229.885117,231.039017 230.423157,230.938858 230.961197,230.838715 
	C231.421219,230.877319 231.881226,230.915909 232.990540,231.082062 
	C237.416702,232.256699 235.572830,234.931870 235.053177,236.880066 
	C228.632416,260.951050 222.073578,284.985199 215.616318,309.046539 
	C212.049301,322.338135 208.606216,335.662964 205.107269,348.972809 
	C205.107254,348.972809 204.973190,349.022614 204.522186,349.140442 
	C192.759598,349.356323 181.441971,349.271057 170.139465,349.643738 
	C165.697861,349.790192 164.147659,347.996277 163.192581,343.914215 
	C158.264114,322.849762 153.061203,301.849396 147.923462,280.834137 
	C147.482208,279.029266 146.817368,277.279083 146.256393,275.503479 
	C144.644608,277.352753 144.071060,279.058197 143.632111,280.797607 
	C138.419983,301.451752 133.069275,322.073242 128.144211,342.795837 
	C126.939651,347.864136 125.067978,350.028564 119.529243,349.718689 
	C110.402252,349.208099 101.218651,349.344574 92.074661,349.662109 
	C87.725121,349.813171 86.072296,348.179535 84.980698,344.106934 
	C75.373367,308.263367 65.543549,272.479431 55.811188,236.669281 
	C55.400833,235.159393 55.301189,233.565063 55.040638,231.907257 
	C57.081120,231.461273 58.518852,231.147034 59.956585,230.832779 
	C66.671867,230.873581 73.387154,230.914383 80.926651,231.054901 
	C90.255692,231.567474 90.309647,231.556732 91.976608,239.925705 
	C96.270668,261.484131 100.494659,283.056488 104.795525,304.613556 
	C105.384651,307.566467 106.252205,310.463806 106.990852,313.386871 
	C110.339493,303.776764 112.712074,294.271423 114.914070,284.726776 
	C116.893433,276.147125 118.685471,267.524200 120.560127,258.920380 
	C120.684464,258.495758 120.808807,258.071167 121.180542,257.026489 
	C122.951561,250.185608 124.697426,244.008087 125.920395,237.728699 
	C126.731018,233.566574 128.228424,230.706207 132.962921,230.836929 
	C141.009033,230.873779 149.055161,230.910645 157.920013,231.050858 
	C161.169449,231.392960 163.600159,231.631699 166.030869,231.870422 
	C166.030869,231.870438 166.012329,231.960968 166.039978,232.374664 
	C166.886566,236.354126 167.644455,239.935211 168.535278,243.482925 
	C172.012863,257.332642 175.532516,271.171783 179.036530,285.014862 
z"/>
<path fill="#F7FDFA" opacity="1.000000" stroke="none" 
	d="
M281.594055,232.696198 
	C305.977448,226.117599 328.417358,228.027863 346.966644,246.346146 
	C360.662842,259.871765 363.771088,277.207275 362.554565,295.703552 
	C362.315430,299.339722 359.930511,299.324188 357.280548,299.320190 
	C340.623199,299.294952 323.965790,299.316559 307.308380,299.316254 
	C299.812744,299.316132 292.316986,299.279694 284.821533,299.311829 
	C283.381775,299.318024 281.943115,299.567230 280.577820,299.697296 
	C279.965942,309.006287 285.592773,317.378204 294.245148,320.531281 
	C303.427979,323.877655 313.791870,321.298615 318.950043,313.877991 
	C320.826233,311.178894 322.768860,310.238678 325.905334,310.292419 
	C335.397369,310.455139 344.893829,310.348877 354.388458,310.381866 
	C355.973633,310.387390 357.558228,310.564972 359.778778,310.702393 
	C356.873199,322.272644 351.262177,331.390137 342.605591,338.214264 
	C322.513031,354.053680 300.023987,355.726074 277.097198,346.246490 
	C254.279526,336.811981 244.582916,317.660034 243.510376,293.903595 
	C242.542877,272.473755 248.534393,253.592728 266.660400,240.379135 
	C271.027588,237.195526 276.343567,235.313461 281.594055,232.696198 
M323.875885,270.931366 
	C318.666077,260.865723 307.845673,256.371765 296.378723,259.511108 
	C287.050323,262.064972 280.501251,270.004211 280.917419,278.779663 
	C282.637634,278.857391 284.416168,279.003418 286.195038,279.007324 
	C297.004028,279.031006 307.813110,279.027039 318.622162,279.022766 
	C325.867035,279.019897 326.032318,278.793701 323.875885,270.931366 
z"/>
<path fill="#F7FDFA" opacity="1.000000" stroke="none" 
	d="
M414.139404,348.747192 
	C385.788269,339.330017 371.774017,313.584290 374.937195,282.054871 
	C378.589539,245.649704 407.176819,225.611298 442.717407,229.822906 
	C476.877258,233.870865 497.184448,260.486664 493.762390,294.745728 
	C493.338867,298.985840 491.281281,299.389160 487.903961,299.378448 
	C464.422241,299.304016 440.940155,299.321289 417.458191,299.344391 
	C410.858368,299.350891 410.233063,300.244934 412.295959,306.618835 
	C415.003754,314.985260 420.687744,320.155945 429.383942,321.502167 
	C437.849731,322.812683 445.239014,320.794800 450.572327,313.448486 
	C451.470612,312.211182 452.947205,310.554657 454.183197,310.531860 
	C466.115204,310.311768 478.052887,310.399841 490.791840,310.399841 
	C488.864502,319.827576 484.690399,327.231781 478.627869,333.474030 
	C460.556732,352.080811 438.526031,354.719177 414.139404,348.747192 
M437.499268,279.026428 
	C443.599121,279.026428 449.698944,279.026428 456.118195,279.026428 
	C456.451904,271.028595 453.286163,265.692688 447.275848,262.210724 
	C438.506805,257.130524 429.464996,257.054108 420.849121,262.530396 
	C415.181061,266.133057 411.906281,271.433685 411.597015,278.224579 
	C412.478760,278.606506 412.775604,278.845703 413.074707,278.848541 
	C420.882843,278.922943 428.691162,278.972839 437.499268,279.026428 
z"/>
<path fill="#F6FDFA" opacity="1.000000" stroke="none" 
	d="
M421.881744,440.030670 
	C439.677002,426.675415 450.773102,409.784302 452.396942,387.515533 
	C452.659180,383.919861 454.261017,383.108856 457.439850,383.164459 
	C464.934509,383.295593 472.437134,383.348450 479.928345,383.140106 
	C483.564240,383.038971 484.443634,384.460968 484.257446,387.871033 
	C482.646637,417.369690 470.019836,441.545990 447.570374,460.114594 
	C403.692291,496.407471 343.101349,497.513611 297.914520,462.900360 
	C273.876709,444.487366 260.178253,419.878204 257.677429,389.329956 
	C257.274384,384.406403 258.688812,382.891113 263.550415,383.130432 
	C270.696472,383.482239 277.874542,383.276215 285.036682,383.164032 
	C287.823669,383.120361 289.453949,383.895660 289.568390,386.993225 
	C290.861420,421.991577 322.800995,450.540588 358.431091,455.177948 
	C381.349915,458.160889 402.479767,453.445801 421.881744,440.030670 
z"/>
<path fill="#F9FEFC" opacity="1.000000" stroke="none" 
	d="
M549.359802,318.000488 
	C549.359741,328.636475 549.359741,338.772461 549.359741,349.897705 
	C544.707275,349.897705 540.470703,349.896881 536.234192,349.897888 
	C529.904053,349.899414 523.570923,349.786346 517.245117,349.953186 
	C514.073730,350.036835 512.734314,349.026642 512.835876,345.686920 
	C513.028198,339.362762 512.896545,333.028656 512.895630,326.698700 
	C512.889221,283.887054 512.942566,241.075195 512.783936,198.264114 
	C512.767456,193.805649 513.793274,192.069855 518.563049,192.232635 
	C528.528931,192.572723 538.514648,192.335617 549.359863,192.335617 
	C549.359863,234.360077 549.359863,275.930267 549.359802,318.000488 
z"/>
<path fill="#56C28B" opacity="1.000000" stroke="none" 
	d="
M59.755051,230.575500 
	C58.518852,231.147034 57.081120,231.461273 55.040638,231.907257 
	C55.301189,233.565063 55.400833,235.159393 55.811188,236.669281 
	C65.543549,272.479431 75.373367,308.263367 84.980698,344.106934 
	C86.072296,348.179535 87.725121,349.813171 92.074661,349.662109 
	C101.218651,349.344574 110.402252,349.208099 119.529243,349.718689 
	C125.067978,350.028564 126.939651,347.864136 128.144211,342.795837 
	C133.069275,322.073242 138.419983,301.451752 143.632111,280.797607 
	C144.071060,279.058197 144.644608,277.352753 146.256393,275.503479 
	C146.817368,277.279083 147.482208,279.029266 147.923462,280.834137 
	C153.061203,301.849396 158.264114,322.849762 163.192581,343.914215 
	C164.147659,347.996277 165.697861,349.790192 170.139465,349.643738 
	C181.441971,349.271057 192.759598,349.356323 204.535828,349.210632 
	C203.680969,349.869049 202.365585,351.176910 201.041275,351.186005 
	C190.389557,351.259155 179.733994,350.927612 169.084335,351.071350 
	C164.975418,351.126831 163.183807,349.599487 162.248535,345.654694 
	C157.838120,327.052399 153.196976,308.504669 148.596420,289.947815 
	C148.136780,288.093750 147.395432,286.309509 146.348679,283.195160 
	C145.004684,285.247284 144.042938,286.136108 143.784760,287.196259 
	C139.381470,305.278900 134.904922,323.346527 130.808258,341.499573 
	C129.150055,348.847321 127.138191,350.989990 119.580696,350.987640 
	C109.754982,350.984589 99.928268,350.900055 90.104095,351.021423 
	C86.585724,351.064911 84.850227,349.938904 83.865479,346.252655 
	C74.933090,312.815643 65.777435,279.438202 56.661400,246.050354 
	C55.656910,242.371353 54.134174,238.797989 53.490116,235.065491 
	C52.677071,230.353653 54.683289,228.970871 59.755051,230.575500 
z"/>
<path fill="#56C28B" opacity="1.000000" stroke="none" 
	d="
M120.266411,259.081238 
	C118.685471,267.524200 116.893433,276.147125 114.914070,284.726776 
	C112.712074,294.271423 110.339493,303.776764 106.990852,313.386871 
	C106.252205,310.463806 105.384651,307.566467 104.795525,304.613556 
	C100.494659,283.056488 96.270668,261.484131 91.976608,239.925705 
	C90.309647,231.556732 90.255692,231.567474 81.393784,230.992096 
	C88.429100,227.460968 91.534348,229.108047 93.020699,236.643890 
	C95.587791,249.659103 98.520569,262.602020 101.107819,275.613464 
	C102.629387,283.265503 103.724350,291.001495 105.136642,298.676666 
	C105.501694,300.660553 106.339493,302.557465 106.960136,304.494324 
	C107.521652,304.505554 108.083160,304.516815 108.644669,304.528076 
	C109.469810,300.782440 110.191986,297.010590 111.139297,293.296143 
	C114.037300,281.932922 117.021820,270.591797 120.266411,259.081238 
z"/>
<path fill="#56C28B" opacity="1.000000" stroke="none" 
	d="
M205.422394,348.848083 
	C208.606216,335.662964 212.049301,322.338135 215.616318,309.046539 
	C222.073578,284.985199 228.632416,260.951050 235.053177,236.880066 
	C235.572830,234.931870 237.416702,232.256699 233.333862,231.029510 
	C236.841675,229.181686 238.237122,230.910812 237.393616,234.441330 
	C235.732864,241.392395 233.719406,248.259369 231.841599,255.158340 
	C226.033722,276.496399 220.217346,297.832153 214.411972,319.170898 
	C211.968369,328.152740 209.562164,337.144806 207.083771,346.116974 
	C206.828995,347.039337 206.195358,347.857086 205.422394,348.848083 
z"/>
<path fill="#56C28B" opacity="1.000000" stroke="none" 
	d="
M207.740051,230.608185 
	C203.761261,230.908203 202.307404,233.188950 201.555466,237.222504 
	C197.996536,256.313324 194.072937,275.336182 190.054749,294.692566 
	C190.407562,289.642395 190.669785,284.226013 191.623856,278.934418 
	C194.066437,265.387115 196.811523,251.894272 199.451614,238.382767 
	C199.738037,236.916992 200.064865,235.452881 200.484192,234.020554 
	C201.550034,230.380005 203.617477,228.578705 207.740051,230.608185 
z"/>
<path fill="#56C28B" opacity="1.000000" stroke="none" 
	d="
M179.213287,284.698792 
	C175.532516,271.171783 172.012863,257.332642 168.535278,243.482925 
	C167.644455,239.935211 166.886566,236.354126 166.085297,232.383667 
	C166.895004,232.964386 168.141953,233.839951 168.410538,234.951828 
	C172.148056,250.424316 175.762970,265.926544 179.359818,281.432617 
	C179.576782,282.368011 179.389328,283.397156 179.213287,284.698792 
z"/>
<path fill="#56C28B" opacity="1.000000" stroke="none" 
	d="
M188.322754,302.043884 
	C187.974167,305.388458 187.361526,308.878174 186.748871,312.367920 
	C186.207779,312.391937 185.666687,312.415924 185.125595,312.439941 
	C183.153046,304.182556 181.180496,295.925201 179.290375,287.273438 
	C180.513947,289.689117 181.800430,292.450867 182.755722,295.322754 
	C183.729462,298.250153 184.377472,301.285889 185.367920,305.029419 
	C186.633179,303.693817 187.345947,302.941406 188.322754,302.043884 
z"/>
<path fill="#56C28B" opacity="1.000000" stroke="none" 
	d="
M132.700699,230.631027 
	C128.228424,230.706207 126.731018,233.566574 125.920395,237.728699 
	C124.697426,244.008087 122.951561,250.185608 121.194977,256.692871 
	C121.103554,254.225128 120.916649,251.404388 121.458160,248.731201 
	C122.444443,243.862396 123.844864,239.076431 125.106697,234.264862 
	C126.138916,230.328812 128.399307,228.658600 132.700699,230.631027 
z"/>
<path fill="#56C28B" opacity="1.000000" stroke="none" 
	d="
M165.914078,231.525452 
	C163.600159,231.631699 161.169449,231.392960 158.387451,230.990234 
	C160.623199,230.944321 163.210236,231.062393 165.914078,231.525452 
z"/>
<path fill="#56C28B" opacity="1.000000" stroke="none" 
	d="
M189.276718,296.962250 
	C189.440521,297.703522 189.366318,298.570587 189.091370,299.706299 
	C188.939987,299.012634 188.989334,298.050354 189.276718,296.962250 
z"/>
<path fill="#56C28B" opacity="1.000000" stroke="none" 
	d="
M230.807724,230.665405 
	C230.423157,230.938858 229.885117,231.039017 229.189270,230.986847 
	C229.572388,230.720383 230.113327,230.606247 230.807724,230.665405 
z"/>
<path fill="#21BD6B" opacity="1.000000" stroke="none" 
	d="
M324.020081,271.303345 
	C326.032318,278.793701 325.867035,279.019897 318.622162,279.022766 
	C307.813110,279.027039 297.004028,279.031006 286.195038,279.007324 
	C284.416168,279.003418 282.637634,278.857391 280.917419,278.779663 
	C280.501251,270.004211 287.050323,262.064972 296.378723,259.511108 
	C307.845673,256.371765 318.666077,260.865723 324.020081,271.303345 
z"/>
<path fill="#21BD6B" opacity="1.000000" stroke="none" 
	d="
M436.999390,279.026703 
	C428.691162,278.972839 420.882843,278.922943 413.074707,278.848541 
	C412.775604,278.845703 412.478760,278.606506 411.597015,278.224579 
	C411.906281,271.433685 415.181061,266.133057 420.849121,262.530396 
	C429.464996,257.054108 438.506805,257.130524 447.275848,262.210724 
	C453.286163,265.692688 456.451904,271.028595 456.118195,279.026428 
	C449.698944,279.026428 443.599121,279.026428 436.999390,279.026703 
z"/>
</svg>