<svg width="24" height="24" viewBox="0 0 24 24" fill="none" xmlns="http://www.w3.org/2000/svg">
<path d="M22 11V3.6C22 3.44087 21.9368 3.28826 21.8243 3.17574C21.7117 3.06321 21.5591 3 21.4 3H2.6C2.44087 3 2.28826 3.06321 2.17574 3.17574C2.06321 3.28826 2 3.44087 2 3.6V11M22 11H2M22 11L21.21 13.584C21.0849 13.9936 20.8317 14.3523 20.4875 14.6072C20.1433 14.8621 19.7263 14.9998 19.298 15H18M2 11L2.79 13.584C2.91507 13.9936 3.16834 14.3523 3.51254 14.6072C3.85674 14.8621 4.27369 14.9998 4.702 15H6M18 7H19M9.5 14.5C9.5 14.5 9.5 21.5 6 21.5M14.5 14.5C14.5 14.5 14.5 21.5 18 21.5M12 14.5V21.5" stroke="black" stroke-width="1.5" stroke-linecap="round" stroke-linejoin="round"/>
</svg>
