<svg width="24" height="24" viewBox="0 0 24 24" fill="none" xmlns="http://www.w3.org/2000/svg">
<path d="M18.3333 22L15.4267 14.0711M5 22L7.90667 14.0711M17.3556 19.3333H5.97778M7.15111 2L6.6 2.72889C6.37996 3.0175 6.27938 3.3797 6.31909 3.74045C6.35881 4.10119 6.53578 4.43283 6.81333 4.66667C6.96777 4.795 7.09328 4.95459 7.1816 5.13492C7.26993 5.31525 7.31907 5.51224 7.32579 5.71293C7.3325 5.91361 7.29665 6.11345 7.22058 6.29928C7.14451 6.48512 7.02995 6.65274 6.88444 6.79111M12.1644 2L11.6133 2.72889C11.3933 3.0175 11.2927 3.3797 11.3324 3.74045C11.3721 4.10119 11.5491 4.43283 11.8267 4.66667C11.9787 4.79658 12.102 4.95672 12.1887 5.13691C12.2754 5.31709 12.3237 5.51336 12.3304 5.71322C12.337 5.91307 12.302 6.11213 12.2276 6.29771C12.1531 6.48329 12.0408 6.65133 11.8978 6.79111M16.8311 2L16.28 2.72889C16.06 3.0175 15.9594 3.3797 15.9991 3.74045C16.0388 4.10119 16.2158 4.43283 16.4933 4.66667C16.6454 4.79658 16.7687 4.95672 16.8554 5.13691C16.9421 5.31709 16.9903 5.51336 16.997 5.71322C17.0037 5.91307 16.9687 6.11213 16.8942 6.29771C16.8197 6.48329 16.7074 6.65133 16.5644 6.79111M16.6711 9.33333C16.82 9.3334 16.967 9.36625 17.1017 9.42957C17.2364 9.49288 17.3555 9.58509 17.4506 9.69965C17.5456 9.81421 17.6142 9.9483 17.6516 10.0924C17.6889 10.2365 17.6941 10.387 17.6667 10.5333C17.3594 11.8928 16.599 13.1073 15.5103 13.9774C14.4215 14.8475 13.0693 15.3215 11.6756 15.3215C10.2818 15.3215 8.92957 14.8475 7.84085 13.9774C6.75213 13.1073 5.99169 11.8928 5.68444 10.5333C5.65519 10.3861 5.65931 10.2341 5.69651 10.0887C5.73371 9.94326 5.80304 9.808 5.8994 9.69288C5.99576 9.57776 6.1167 9.4857 6.25333 9.42348C6.38995 9.36126 6.53879 9.33046 6.68889 9.33333H16.6711Z" stroke="black" stroke-width="1.33333" stroke-linecap="round" stroke-linejoin="round"/>
</svg>
