<svg width="24" height="24" viewBox="0 0 24 24" fill="none" xmlns="http://www.w3.org/2000/svg">
<path d="M5 17C4.372 16.865 3.879 16.649 3.462 16.302C3.25921 16.1331 3.07364 15.9445 2.908 15.739C2 14.616 2 12.95 2 9.612C2 6.274 2 4.607 2.908 3.484C3.07364 3.27852 3.25921 3.08993 3.462 2.921C4.57 2 6.212 2 9.5 2H14.5C17.788 2 19.431 2 20.538 2.921C20.7407 3.091 20.9253 3.27867 21.092 3.484C22 4.607 22 6.275 22 9.612C22 12.948 22 14.616 21.092 15.739C20.9264 15.9445 20.7408 16.1331 20.538 16.302C20.121 16.649 19.628 16.865 19 17" stroke="black" stroke-width="1.5" stroke-linecap="round"/>
<path d="M6 13H7.333M7.333 13L8.5 22M7.333 13H12M12 13H16.667M12 13V22M18 13H16.667M16.667 13L15.5 22M8 10C8.059 8.048 9.262 8 10.998 8H13.002C14.738 8 15.942 8.048 16 10" stroke="black" stroke-width="1.5" stroke-linecap="round" stroke-linejoin="round"/>
<path d="M8 16.5H16M8.444 20H15.556" stroke="black" stroke-width="1.5" stroke-linejoin="round"/>
</svg>
