<svg width="24" height="24" viewBox="0 0 24 24" fill="none" xmlns="http://www.w3.org/2000/svg">
<path d="M3 13.083C3 13.006 3 12.967 3.002 12.935C3.01775 12.6927 3.12111 12.4645 3.29279 12.2928C3.46446 12.1211 3.69273 12.0178 3.935 12.002C3.968 12 4.005 12 4.083 12H19.917C19.994 12 20.032 12 20.065 12.002C20.3073 12.0178 20.5355 12.1211 20.7072 12.2928C20.8789 12.4645 20.9822 12.6927 20.998 12.935C21 12.967 21 13.005 21 13.083C21 13.478 21 13.676 20.986 13.898C20.777 17.185 17.983 20.087 14.706 20.418C14.485 20.441 14.356 20.446 14.098 20.456C13.399 20.4835 12.6995 20.4982 12 20.5C11.35 20.5 10.636 20.483 9.902 20.456C9.644 20.446 9.515 20.441 9.295 20.419C6.017 20.087 3.223 17.185 3.015 13.898C3 13.676 3 13.478 3 13.083Z" stroke="black" stroke-width="1.5"/>
<path d="M6 20L5 22M18 20L19 22M2 12H22" stroke="black" stroke-width="1.5" stroke-linecap="round"/>
<path d="M2.25 13C2.25 13.1989 2.32902 13.3897 2.46967 13.5303C2.61032 13.671 2.80109 13.75 3 13.75C3.19891 13.75 3.38968 13.671 3.53033 13.5303C3.67098 13.3897 3.75 13.1989 3.75 13H2.25ZM6.346 8.742L5.648 9.017C5.68492 9.11034 5.7402 9.19532 5.81057 9.2669C5.88094 9.33848 5.96496 9.39521 6.05765 9.43373C6.15035 9.47224 6.24983 9.49176 6.3502 9.49112C6.45058 9.49048 6.5498 9.46969 6.642 9.43L6.346 8.742ZM12.306 6.175L12.603 6.865C12.782 6.78791 12.9239 6.64417 12.9988 6.46423C13.0736 6.2843 13.0755 6.08229 13.004 5.901L12.306 6.175ZM3.75 13V4.385H2.25V13H3.75ZM5.385 2.75C6.054 2.75 6.655 3.157 6.903 3.778L8.296 3.22C8.0634 2.63832 7.66187 2.14067 7.14318 1.78935C6.6245 1.43804 6.01246 1.25018 5.386 1.25L5.385 2.75ZM3.75 4.385C3.75 3.482 4.482 2.75 5.385 2.75L5.386 1.25C4.55455 1.25 3.75615 1.58029 3.16822 2.16822C2.58029 2.75615 2.25 3.55355 2.25 4.385H3.75ZM6.903 3.778L7.283 4.726L8.675 4.169L8.296 3.22L6.903 3.778ZM7.043 8.467C6.79155 7.82586 6.79656 7.11254 7.057 6.475L5.667 5.91C5.26137 6.90463 5.25521 8.01723 5.648 9.017L7.043 8.467ZM12.01 5.487L6.049 8.053L6.642 9.43L12.602 6.864L12.01 5.487ZM10.282 5.068C10.904 5.334 11.367 5.837 11.609 6.45L13.004 5.901C12.8134 5.40915 12.5267 4.95921 12.1606 4.57941C11.7946 4.19961 11.3565 3.89658 10.872 3.688L10.282 5.068ZM7.057 6.475C7.29197 5.88467 7.73729 5.4033 8.307 5.122L7.651 3.774C6.74861 4.2166 6.0419 4.97745 5.667 5.91L7.057 6.475ZM8.307 5.122C8.61282 4.97097 8.94773 4.88803 9.28869 4.87888C9.62964 4.86973 9.96852 4.93359 10.282 5.068L10.872 3.688C10.3607 3.4693 9.80814 3.36467 9.25221 3.37934C8.69627 3.39401 8.15007 3.52864 7.651 3.774L8.307 5.122Z" fill="black"/>
</svg>
