<svg width="24" height="24" viewBox="0 0 24 24" fill="none" xmlns="http://www.w3.org/2000/svg">
<path d="M19.1325 2.39266C15.9113 0.555158 11.793 1.64566 9.933 4.82641L9.68025 5.25991C9.63683 5.3335 9.60858 5.41504 9.59716 5.49972C9.58574 5.58441 9.59137 5.67052 9.61374 5.75299C9.6361 5.83546 9.67474 5.91262 9.72738 5.97993C9.78002 6.04723 9.8456 6.10333 9.92025 6.14491L14.6978 8.86966L11.8387 13.8107H11.7787C9.0165 13.8107 6.624 15.3932 5.19825 17.6304C5.44198 17.5455 5.70132 17.515 5.9581 17.5409C6.21488 17.5668 6.46289 17.6485 6.68475 17.7804C7.91925 16.1679 9.762 15.1067 11.7795 15.1067C13.8825 15.1067 15.7957 16.2594 17.0287 17.9889C17.3745 17.6752 17.8306 17.5114 18.297 17.5337C17.1322 15.7562 15.351 14.4062 13.2607 13.9652L15.8348 9.51766L20.4473 12.1479C20.598 12.2333 20.7762 12.2564 20.9437 12.2121C21.1112 12.1678 21.2547 12.0597 21.3435 11.9109L21.597 11.4774C23.4562 8.29666 22.3538 4.22866 19.1325 2.39266ZM17.2147 8.80816L14.4532 7.23316C14.9543 6.47191 15.4297 5.89216 16.0005 5.37991C16.5555 4.88116 17.2193 4.42966 18.1185 3.93916C18.2513 4.76416 18.2917 5.45116 18.2062 6.12466C18.105 6.93016 17.8162 7.75966 17.2147 8.80816ZM18.351 9.45616C19.0155 8.30041 19.38 7.30516 19.509 6.28516C19.593 5.61691 19.5742 4.95691 19.4895 4.26016C21.24 5.89141 21.7222 8.53216 20.532 10.7004L18.351 9.45616ZM15.1178 4.42066C14.4255 5.04241 13.8705 5.73316 13.3155 6.58516L11.1458 5.34766C12.4245 3.28966 14.9032 2.37616 17.1705 2.97916C16.3582 3.44191 15.6967 3.90091 15.1178 4.42066ZM6.405 19.0562C6.35923 18.922 6.2712 18.8062 6.15409 18.7263C6.03699 18.6464 5.89713 18.6066 5.7555 18.6129C5.61397 18.6178 5.47787 18.6686 5.36773 18.7576C5.2576 18.8466 5.17942 18.969 5.145 19.1064C4.92225 20.0064 4.5 20.4999 4.0185 20.7872C3.5145 21.0872 2.87325 21.2042 2.15625 21.2042C1.98332 21.2032 1.81707 21.2708 1.69403 21.3923C1.57098 21.5139 1.50119 21.6792 1.5 21.8522C1.50119 22.0251 1.57098 22.1905 1.69403 22.312C1.81707 22.4335 1.98332 22.5012 2.15625 22.5002C2.99325 22.5002 3.906 22.3682 4.6965 21.8972C5.16782 21.6177 5.56581 21.23 5.8575 20.7662C7.42275 22.7379 10.4775 22.7274 11.9977 20.7452C13.542 22.7589 16.6702 22.7379 18.2115 20.6709C19.0635 21.8282 20.4525 22.5002 21.84 22.5002C22.0128 22.501 22.1789 22.4332 22.3017 22.3117C22.4246 22.1902 22.4943 22.025 22.4955 21.8522C22.4943 21.6794 22.4246 21.5141 22.3017 21.3926C22.1789 21.2711 22.0128 21.2034 21.84 21.2042C20.55 21.2042 19.2638 20.3747 18.8385 19.0629C18.7959 18.9318 18.7128 18.8176 18.6013 18.7366C18.4897 18.6556 18.3554 18.6121 18.2175 18.6122C18.0796 18.6105 17.9447 18.6525 17.8322 18.7323C17.7197 18.8121 17.6353 18.9255 17.5912 19.0562C16.7483 21.5687 13.4453 21.5372 12.6188 19.1612C12.5739 19.0324 12.49 18.921 12.3786 18.8424C12.2672 18.7639 12.134 18.7222 11.9977 18.7232C11.8617 18.7223 11.7287 18.7639 11.6175 18.8423C11.5063 18.9207 11.4224 19.0319 11.3775 19.1604C10.5503 21.5379 7.248 21.5694 6.405 19.0562Z" fill="black"/>
</svg>
