<svg width="24" height="24" viewBox="0 0 24 24" fill="none" xmlns="http://www.w3.org/2000/svg">
<path d="M6 12V21H10V18C10 17.4696 10.2107 16.9609 10.5858 16.5858C10.9609 16.2107 11.4696 16 12 16C12.5304 16 13.0391 16.2107 13.4142 16.5858C13.7893 16.9609 14 17.4696 14 18V21H18V12M6 12H18M6 12C5.20435 12 4.44129 11.6839 3.87868 11.1213C3.31607 10.5587 3 9.79565 3 9C5.04383 9.05748 7.04875 8.49459 8.68463 7.404C10.3205 6.31342 11.4898 4.76016 12 3C12.5102 4.76016 13.6795 6.31342 15.3154 7.404C16.9513 8.49459 18.9562 9.05748 21 9C21 9.79565 20.6839 10.5587 20.1213 11.1213C19.5587 11.6839 18.7956 12 18 12" stroke="black" stroke-width="1.5" stroke-linecap="round" stroke-linejoin="round"/>
</svg>
