<svg width="24" height="24" viewBox="0 0 24 24" fill="none" xmlns="http://www.w3.org/2000/svg">
<path d="M8.07005 9.99969C7.86086 8.54992 8.11174 7.07106 8.78734 5.77138C9.46295 4.47171 10.5292 3.41672 11.836 2.755C13.1428 2.09328 14.6243 1.85818 16.0718 2.08281C17.5192 2.30743 18.8597 2.98047 19.9045 4.00712C20.9493 5.03378 21.6457 6.36231 21.8956 7.80562C22.1456 9.24892 21.9364 10.7343 21.2977 12.0525C20.659 13.3706 19.6228 14.4552 18.3352 15.1535C17.0475 15.8517 15.5733 16.1285 14.12 15.9447" stroke="black" stroke-width="1.5" stroke-linecap="round"/>
<path d="M18.868 10C19.203 8.69 18.893 7.018 18 6" stroke="black" stroke-width="1.5" stroke-linecap="round"/>
<path d="M2 19.0965L10.225 11.5565M10.225 11.5565C11.677 11.3535 12.605 12.3215 12.605 13.5985M10.225 11.5565L12.605 9.37445C12.8769 9.12742 13.2335 8.99453 13.6008 9.00334C13.9681 9.01215 14.3179 9.16198 14.5777 9.42177C14.8375 9.68155 14.9873 10.0314 14.9961 10.3986C15.0049 10.7659 14.872 11.1225 14.625 11.3945L12.605 13.5985M4.903 21.9995L12.605 13.5985" stroke="black" stroke-width="1.5" stroke-linecap="round" stroke-linejoin="round"/>
</svg>
