<svg width="24" height="24" viewBox="0 0 24 24" fill="none" xmlns="http://www.w3.org/2000/svg">
<path d="M21 8.863C21 9.52604 20.7366 10.1619 20.2678 10.6308C19.7989 11.0996 19.163 11.363 18.5 11.363C17.837 11.363 17.2011 11.0996 16.7322 10.6308C16.2634 10.1619 16 9.52604 16 8.863C16 8.19996 16.2634 7.56407 16.7322 7.09523C17.2011 6.62639 17.837 6.363 18.5 6.363C19.163 6.363 19.7989 6.62639 20.2678 7.09523C20.7366 7.56407 21 8.19996 21 8.863ZM13 8C13 9.32608 12.4732 10.5979 11.5355 11.5355C10.5979 12.4732 9.32608 13 8 13C6.67392 13 5.40215 12.4732 4.46447 11.5355C3.52678 10.5979 3 9.32608 3 8C3 6.67392 3.52678 5.40215 4.46447 4.46447C5.40215 3.52678 6.67392 3 8 3C9.32608 3 10.5979 3.52678 11.5355 4.46447C12.4732 5.40215 13 6.67392 13 8ZM18.969 17.5C18.969 18.4283 18.6003 19.3185 17.9439 19.9749C17.2875 20.6313 16.3973 21 15.469 21C14.5407 21 13.6505 20.6313 12.9941 19.9749C12.3377 19.3185 11.969 18.4283 11.969 17.5C11.969 16.5717 12.3377 15.6815 12.9941 15.0251C13.6505 14.3687 14.5407 14 15.469 14C16.3973 14 17.2875 14.3687 17.9439 15.0251C18.6003 15.6815 18.969 16.5717 18.969 17.5Z" stroke="black" stroke-width="1.5" stroke-linecap="round" stroke-linejoin="round"/>
</svg>
