<svg width="24" height="24" viewBox="0 0 24 24" fill="none" xmlns="http://www.w3.org/2000/svg">
<path d="M9.60039 14.3996C9.60039 13.7631 9.85325 13.1526 10.3033 12.7026C10.7534 12.2525 11.3639 11.9996 12.0004 11.9996C12.6369 11.9996 13.2474 12.2525 13.6974 12.7026C14.1475 13.1526 14.4004 13.7631 14.4004 14.3996C14.4004 15.0361 14.1475 15.6466 13.6974 16.0967C13.2474 16.5468 12.6369 16.7996 12.0004 16.7996C11.3639 16.7996 10.7534 16.5468 10.3033 16.0967C9.85325 15.6466 9.60039 15.0361 9.60039 14.3996ZM12.0004 9.59961C10.7274 9.59961 9.50645 10.1053 8.60628 11.0055C7.7061 11.9057 7.20039 13.1266 7.20039 14.3996C7.20039 15.6726 7.7061 16.8935 8.60628 17.7937C9.50645 18.6939 10.7274 19.1996 12.0004 19.1996C13.2734 19.1996 14.4943 18.6939 15.3945 17.7937C16.2947 16.8935 16.8004 15.6726 16.8004 14.3996C16.8004 13.1266 16.2947 11.9057 15.3945 11.0055C14.4943 10.1053 13.2734 9.59961 12.0004 9.59961ZM8.40039 14.3996C8.40039 13.4448 8.77968 12.5292 9.45481 11.854C10.1299 11.1789 11.0456 10.7996 12.0004 10.7996C12.9552 10.7996 13.8708 11.1789 14.546 11.854C15.2211 12.5292 15.6004 13.4448 15.6004 14.3996C15.6004 15.3544 15.2211 16.2701 14.546 16.9452C13.8708 17.6203 12.9552 17.9996 12.0004 17.9996C11.0456 17.9996 10.1299 17.6203 9.45481 16.9452C8.77968 16.2701 8.40039 15.3544 8.40039 14.3996ZM2.40039 5.39961C2.40039 4.92222 2.59003 4.46438 2.9276 4.12682C3.26516 3.78925 3.723 3.59961 4.20039 3.59961H19.8004C20.2778 3.59961 20.7356 3.78925 21.0732 4.12682C21.4107 4.46438 21.6004 4.92222 21.6004 5.39961V6.59961C21.6006 6.972 21.4853 7.33529 21.2704 7.6394C21.0554 7.94351 20.7515 8.17348 20.4004 8.29761V13.1996C20.4004 14.3027 20.1831 15.395 19.761 16.4142C19.3388 17.4333 18.7201 18.3593 17.9401 19.1393C17.1601 19.9193 16.2341 20.5381 15.2149 20.9602C14.1958 21.3823 13.1035 21.5996 12.0004 21.5996C10.8973 21.5996 9.80499 21.3823 8.78585 20.9602C7.76672 20.5381 6.84071 19.9193 6.06069 19.1393C5.28068 18.3593 4.66194 17.4333 4.2398 16.4142C3.81766 15.395 3.60039 14.3027 3.60039 13.1996V8.29761C3.2493 8.17348 2.94534 7.94351 2.73042 7.6394C2.5155 7.33529 2.4002 6.972 2.40039 6.59961V5.39961ZM4.80039 8.39961V13.1996C4.80039 15.1092 5.55896 16.9405 6.90922 18.2908C8.25948 19.641 10.0908 20.3996 12.0004 20.3996C13.91 20.3996 15.7413 19.641 17.0916 18.2908C18.4418 16.9405 19.2004 15.1092 19.2004 13.1996V8.39961H4.80039ZM4.20039 4.79961C4.04126 4.79961 3.88865 4.86282 3.77613 4.97535C3.66361 5.08787 3.60039 5.24048 3.60039 5.39961V6.59961C3.60039 6.75874 3.66361 6.91135 3.77613 7.02387C3.88865 7.1364 4.04126 7.19961 4.20039 7.19961H19.8004C19.9595 7.19961 20.1121 7.1364 20.2247 7.02387C20.3372 6.91135 20.4004 6.75874 20.4004 6.59961V5.39961C20.4004 5.24048 20.3372 5.08787 20.2247 4.97535C20.1121 4.86282 19.9595 4.79961 19.8004 4.79961H4.20039Z" fill="black"/>
</svg>
