<svg width="24" height="24" viewBox="0 0 24 24" fill="none" xmlns="http://www.w3.org/2000/svg">
<path d="M20.75 11.9942V14.6875C20.75 15.0952 20.75 15.2991 20.6835 15.4601C20.5945 15.6741 20.4243 15.844 20.2101 15.9326C20.0491 16 19.8452 16 19.4375 16C19.0298 16 18.8259 16 18.6649 15.9335C18.4509 15.8445 18.281 15.6743 18.1924 15.4601C18.125 15.2991 18.125 15.0952 18.125 14.6875C18.125 14.2798 18.125 14.0759 18.0585 13.9149C17.9695 13.7009 17.7993 13.531 17.5851 13.4424C17.4241 13.375 17.2202 13.375 16.8125 13.375H7.1875C6.77975 13.375 6.57588 13.375 6.41488 13.4415C6.2009 13.5305 6.03097 13.7007 5.94238 13.9149C5.875 14.0759 5.875 14.2798 5.875 14.6875C5.875 15.0952 5.875 15.2991 5.8085 15.4601C5.7195 15.6741 5.54926 15.844 5.33512 15.9326C5.17412 16 4.97025 16 4.5625 16C4.15475 16 3.95088 16 3.78988 15.9335C3.5759 15.8445 3.40597 15.6743 3.31737 15.4601C3.25 15.2991 3.25 15.0952 3.25 14.6875V11.9942C3.25 10.9425 3.25 10.4166 3.4005 9.9205C3.551 9.42438 3.84238 8.98687 4.426 8.11187L5 7.25L5.84175 5.2305C6.49362 3.66425 6.82 2.882 7.4815 2.441C8.143 2 8.99 2 10.6875 2H13.3125C15.0091 2 15.857 2 16.5185 2.441C17.18 2.882 17.5064 3.66512 18.1583 5.2305L19 7.25L19.574 8.11187C20.1576 8.98687 20.449 9.42438 20.5995 9.9205C20.75 10.4166 20.75 10.9425 20.75 11.9942Z" stroke="black" stroke-width="1.3125" stroke-linecap="round" stroke-linejoin="round"/>
<path d="M3.25 5.9375L5 7.25L6.54088 7.635C6.68088 7.67 6.82233 7.6875 6.96525 7.6875H17.0347C17.1777 7.6875 17.3191 7.67 17.4591 7.635L19 7.25L20.75 5.9375" stroke="black" stroke-width="1.3125" stroke-linecap="round" stroke-linejoin="round"/>
<path d="M17.25 10.75V10.7588M6.75 10.75V10.7588" stroke="black" stroke-width="1.75" stroke-linecap="round" stroke-linejoin="round"/>
<path d="M16.0015 18.866L16.0015 22.0001C16.0016 22.0379 15.9923 22.0751 15.9744 22.1084C15.9566 22.1417 15.9307 22.17 15.8991 22.1907C15.8675 22.2115 15.8313 22.224 15.7937 22.2272C15.756 22.2304 15.7182 22.2242 15.6836 22.2091L12.8215 20.9828L12.8215 23.0499C12.8213 23.0672 12.8162 23.0841 12.8067 23.0986C12.7973 23.1131 12.7839 23.1246 12.7681 23.1317C12.7523 23.1389 12.7349 23.1414 12.7177 23.1389C12.7006 23.1364 12.6845 23.1291 12.6714 23.1178L8.03853 18.9023C8.02133 18.8908 8.00883 18.8735 8.00329 18.8536C7.99774 18.8337 7.99953 18.8124 8.00832 18.7937C8.01711 18.775 8.03232 18.76 8.05119 18.7515C8.07007 18.743 8.09136 18.7416 8.1112 18.7475L11.459 19.1657L11.459 17.2306C11.4585 17.193 11.4673 17.1559 11.4847 17.1225C11.502 17.0892 11.5273 17.0607 11.5584 17.0395C11.5895 17.0183 11.6253 17.0052 11.6627 17.0013C11.7 16.9973 11.7378 17.0027 11.7726 17.0169L15.8609 18.6519C15.9032 18.6692 15.9394 18.6989 15.9645 18.7371C15.9897 18.7754 16.0023 18.8203 16.0015 18.866Z" stroke="black" stroke-linecap="round" stroke-linejoin="round"/>
</svg>
