<svg width="24" height="24" viewBox="0 0 24 24" fill="none" xmlns="http://www.w3.org/2000/svg">
<path d="M7 14C7.53043 14 8.03914 13.7893 8.41421 13.4142C8.78929 13.0391 9 12.5304 9 12C9 11.4696 8.78929 10.9609 8.41421 10.5858C8.03914 10.2107 7.53043 10 7 10C6.46957 10 5.96086 10.2107 5.58579 10.5858C5.21071 10.9609 5 11.4696 5 12C5 12.5304 5.21071 13.0391 5.58579 13.4142C5.96086 13.7893 6.46957 14 7 14ZM17 14C17.5304 14 18.0391 13.7893 18.4142 13.4142C18.7893 13.0391 19 12.5304 19 12C19 11.4696 18.7893 10.9609 18.4142 10.5858C18.0391 10.2107 17.5304 10 17 10C16.4696 10 15.9609 10.2107 15.5858 10.5858C15.2107 10.9609 15 11.4696 15 12C15 12.5304 15.2107 13.0391 15.5858 13.4142C15.9609 13.7893 16.4696 14 17 14ZM12 9C12.5304 9 13.0391 8.78929 13.4142 8.41421C13.7893 8.03914 14 7.53043 14 7C14 6.46957 13.7893 5.96086 13.4142 5.58579C13.0391 5.21071 12.5304 5 12 5C11.4696 5 10.9609 5.21071 10.5858 5.58579C10.2107 5.96086 10 6.46957 10 7C10 7.53043 10.2107 8.03914 10.5858 8.41421C10.9609 8.78929 11.4696 9 12 9ZM12 19C12.5304 19 13.0391 18.7893 13.4142 18.4142C13.7893 18.0391 14 17.5304 14 17C14 16.4696 13.7893 15.9609 13.4142 15.5858C13.0391 15.2107 12.5304 15 12 15C11.4696 15 10.9609 15.2107 10.5858 15.5858C10.2107 15.9609 10 16.4696 10 17C10 17.5304 10.2107 18.0391 10.5858 18.4142C10.9609 18.7893 11.4696 19 12 19Z" stroke="black" stroke-width="1.5" stroke-linecap="round" stroke-linejoin="round"/>
<path d="M2 12C2 17.523 6.477 22 12 22C17.523 22 22 17.523 22 12C22 6.477 17.523 2 12 2C6.477 2 2 6.477 2 12ZM2 12V22" stroke="black" stroke-width="1.5" stroke-linecap="round" stroke-linejoin="round"/>
</svg>
