<svg width="22" height="20" viewBox="0 0 22 20" fill="none" xmlns="http://www.w3.org/2000/svg">
<path d="M10.75 14.75H6.75C3.922 14.75 2.507 14.75 1.629 13.871C0.75 12.993 0.75 11.578 0.75 8.75V6.75C0.75 3.922 0.75 2.507 1.629 1.629C2.507 0.75 3.922 0.75 6.75 0.75H14.75C17.578 0.75 18.993 0.75 19.871 1.629C20.697 2.454 20.747 3.752 20.75 6.25" stroke="black" stroke-width="1.5" stroke-linecap="round" stroke-linejoin="round"/>
<path d="M8.75 18.75H6.75M8.75 18.75C9.14782 18.75 9.52936 18.592 9.81066 18.3107C10.092 18.0294 10.25 17.6478 10.25 17.25V14.75H10.75M8.75 18.75H11.25V14.75H10.75M10.75 14.75V18.75M14.75 11.75V15.75C14.75 17.164 14.75 17.871 15.19 18.31C15.629 18.75 16.336 18.75 17.75 18.75C19.164 18.75 19.871 18.75 20.31 18.31C20.75 17.871 20.75 17.164 20.75 15.75V11.75C20.75 10.336 20.75 9.629 20.31 9.19C19.872 8.75 19.165 8.75 17.75 8.75C16.335 8.75 15.629 8.75 15.19 9.19C14.75 9.628 14.75 10.335 14.75 11.75Z" stroke="black" stroke-width="1.5" stroke-linecap="round" stroke-linejoin="round"/>
</svg>
