<svg width="24" height="24" viewBox="0 0 24 24" fill="none" xmlns="http://www.w3.org/2000/svg">
<path d="M23.0006 12.7773C22.8314 14.9039 22.0552 16.9372 20.7644 18.6357C19.4736 20.3342 17.7224 21.6264 15.7188 22.3589C13.7151 23.0913 11.5434 23.2333 9.46147 22.7678C7.37957 22.3023 5.47505 21.2489 3.97418 19.7329C2.4733 18.2169 1.43916 16.3019 0.994618 14.2154C0.550074 12.1289 0.713813 9.95868 1.46638 7.96253C2.21895 5.96637 3.52872 4.2282 5.24007 2.95452C6.95142 1.68085 8.99243 0.925193 11.1206 0.777344" stroke="black" stroke-width="1.5" stroke-linecap="round" stroke-linejoin="round"/>
<path d="M16.6749 13.7614C16.3653 14.5582 15.862 15.2653 15.2105 15.8187C14.559 16.3721 13.7798 16.7543 12.9434 16.9309C12.1071 17.1075 11.2399 17.0728 10.4203 16.83C9.60065 16.5871 8.8545 16.1438 8.24927 15.5402C7.64405 14.9365 7.19884 14.1915 6.95391 13.3725C6.70898 12.5536 6.67206 11.6864 6.84647 10.8496C7.02089 10.0128 7.40115 9.23261 7.95286 8.57967C8.50457 7.92674 9.21034 7.42162 10.0063 7.11M11.892 11.8929L16.1778 7.60714M16.1778 7.60714L19.6063 8.46429L23.0349 5.03571L19.6063 4.17857L18.7492 0.75L15.3206 4.17857L16.1778 7.60714Z" stroke="black" stroke-width="1.5" stroke-linecap="round" stroke-linejoin="round"/>
</svg>
