<svg width="18" height="18" viewBox="0 0 18 18" fill="none" xmlns="http://www.w3.org/2000/svg">
<path d="M1.125 7.18312V16.1831C1.125 16.3556 1.197 16.5142 1.341 16.659C1.485 16.8037 1.64362 16.8757 1.81687 16.875H16.1831C16.3556 16.875 16.5142 16.803 16.659 16.659C16.8037 16.515 16.8757 16.3564 16.875 16.1831V7.18312H1.125ZM1.125 6.05812H16.875V1.81687C16.875 1.64437 16.803 1.48575 16.659 1.341C16.515 1.19625 16.356 1.12425 16.182 1.125H1.818C1.64475 1.125 1.48575 1.197 1.341 1.341C1.19625 1.485 1.12425 1.644 1.125 1.818V6.05812ZM9 15.1875C8.52525 15.1875 8.1255 15.0214 7.80075 14.6891C7.47525 14.3561 7.3125 13.9455 7.3125 13.4572C7.3125 13.0087 7.446 12.5092 7.713 11.9587C7.98 11.4082 8.409 10.7681 9 10.0384C9.59175 10.7831 10.0207 11.427 10.287 11.97C10.5532 12.513 10.6867 13.0087 10.6875 13.4572C10.6875 13.9462 10.5247 14.3569 10.1992 14.6891C9.8745 15.0214 9.47475 15.1875 9 15.1875ZM14.625 4.24125C14.8717 4.24125 15.0776 4.15837 15.2426 3.99262C15.4076 3.82687 15.4901 3.621 15.4901 3.375C15.4901 3.129 15.4076 2.92313 15.2426 2.75738C15.0776 2.59162 14.8717 2.50912 14.625 2.50987C14.3782 2.51062 14.1724 2.59312 14.0074 2.75738C13.8424 2.92162 13.7599 3.1275 13.7599 3.375C13.7599 3.6225 13.8424 3.82837 14.0074 3.99262C14.1724 4.15687 14.3782 4.2405 14.625 4.24125ZM1.818 18C1.29975 18 0.867375 17.8267 0.520875 17.4802C0.174375 17.1337 0.00075 16.701 0 16.182V1.818C0 1.29975 0.173625 0.867375 0.520875 0.520875C0.868125 0.174375 1.3005 0.00075 1.818 0H16.1831C16.7006 0 17.133 0.173625 17.4802 0.520875C17.8275 0.868125 18.0007 1.3005 18 1.818V16.1831C18 16.7006 17.8267 17.133 17.4802 17.4802C17.1337 17.8275 16.701 18.0007 16.182 18H1.818Z" fill="black"/>
</svg>
