<svg width="24" height="24" viewBox="0 0 24 24" fill="none" xmlns="http://www.w3.org/2000/svg">
<path d="M3 11C3 6.0295 7.0295 2 12 2C16.9705 2 21 6.0295 21 11V17.625C21 17.97 20.72 18.25 20.375 18.25H3.625C3.28 18.25 3 17.97 3 17.625V11ZM12 3.25C7.72 3.25 4.25 6.72 4.25 11V17H8.818C8.32697 16.5853 7.9323 16.0685 7.66149 15.4856C7.39068 14.9027 7.25026 14.2677 7.25 13.625C7.25 12.377 7.635 11.395 8.021 10.7265C8.214 10.392 8.4075 10.134 8.556 9.9565C8.63813 9.85874 8.7249 9.76496 8.816 9.6755L8.822 9.6695L8.824 9.6675L8.825 9.6665L8.826 9.666C8.92765 9.5697 9.05911 9.51096 9.19867 9.4995C9.33822 9.48805 9.47751 9.52456 9.5935 9.603C9.8205 9.7525 9.9925 9.851 10.1205 9.914C10.1255 9.8275 10.129 9.729 10.133 9.6115L10.1385 9.44C10.1575 8.93 10.1995 8.1985 10.555 7.532C10.932 6.8245 11.6145 6.269 12.7375 6.0155C12.8289 5.99488 12.9239 5.99509 13.0152 6.01612C13.1066 6.03715 13.192 6.07846 13.2652 6.13699C13.3385 6.19552 13.3976 6.26977 13.4382 6.35425C13.4789 6.43872 13.5 6.53126 13.5 6.625C13.5 8.1315 14.187 9.084 14.983 10.054L15.173 10.2835C15.903 11.161 16.75 12.18 16.75 13.625C16.75 14.2676 16.6099 14.9024 16.3394 15.4853C16.069 16.0682 15.6747 16.5851 15.184 17H19.75V11C19.75 6.72 16.28 3.25 12 3.25ZM9.104 11.3505C8.70559 12.0421 8.49721 12.8268 8.5 13.625C8.5 15.326 9.8735 16.875 12.002 16.875C14.1295 16.875 15.5 15.327 15.5 13.625C15.5 12.649 14.944 11.9735 14.155 11.0155L14.017 10.847C13.3155 9.9925 12.536 8.9695 12.313 7.4835C11.97 7.666 11.778 7.8945 11.658 8.12C11.451 8.5085 11.4065 8.977 11.388 9.486L11.383 9.6195C11.377 9.817 11.3705 10.0335 11.348 10.2155C11.323 10.413 11.263 10.7705 10.99 11.0185C10.6575 11.3205 10.2425 11.281 9.946 11.1895C9.74765 11.1246 9.55661 11.0391 9.376 10.9345C9.27774 11.068 9.18693 11.2069 9.104 11.3505ZM2 20.375C2 20.03 2.28 19.75 2.625 19.75H21.375C21.5408 19.75 21.6997 19.8158 21.8169 19.9331C21.9342 20.0503 22 20.2092 22 20.375C22 20.5408 21.9342 20.6997 21.8169 20.8169C21.6997 20.9342 21.5408 21 21.375 21H2.625C2.28 21 2 20.72 2 20.375Z" fill="black"/>
</svg>
