<svg width="24" height="24" viewBox="0 0 24 24" fill="none" xmlns="http://www.w3.org/2000/svg">
<path d="M9 13.5H15M12 10.5V16.5M17 6C17 3.518 16.482 3 14 3H10C7.518 3 7 3.518 7 6M2 12.563C2 9.469 2 7.923 3.025 6.961C4.05 6 5.7 6 9 6H15C18.3 6 19.95 6 20.975 6.961C22 7.922 22 9.47 22 12.563V14.437C22 17.531 22 19.077 20.975 20.039C19.95 21 18.3 21 15 21H9C5.7 21 4.05 21 3.025 20.039C2 19.078 2 17.53 2 14.437V12.563Z" stroke="black" stroke-width="1.5" stroke-linecap="round" stroke-linejoin="round"/>
</svg>
