<svg width="24" height="24" viewBox="0 0 24 24" fill="none" xmlns="http://www.w3.org/2000/svg">
<path d="M12 17.9999V11.9999M12 11.9999V3.40993C11.9999 3.31065 12.0245 3.21289 12.0715 3.12544C12.1186 3.03799 12.1865 2.96358 12.2694 2.90887C12.3523 2.85416 12.4474 2.82087 12.5463 2.81198C12.6452 2.80309 12.7447 2.81888 12.836 2.85793L21.28 6.47793C21.386 6.52338 21.4767 6.59843 21.5412 6.6941C21.6057 6.78977 21.6412 6.902 21.6435 7.01734C21.6458 7.13268 21.6149 7.24624 21.5543 7.34443C21.4937 7.44261 21.4061 7.52126 21.302 7.57093L12 11.9999ZM12 21.9999C15.866 21.9999 19 20.4329 19 18.4999C19 16.5669 15.866 14.9999 12 14.9999C8.134 14.9999 5 16.5669 5 18.4999C5 20.4329 8.134 21.9999 12 21.9999Z" stroke="black" stroke-width="1.5" stroke-linecap="round" stroke-linejoin="round"/>
</svg>
