<svg width="24" height="24" viewBox="0 0 24 24" fill="none" xmlns="http://www.w3.org/2000/svg">
<g clip-path="url(#clip0_2483_2916)">
<path d="M8.67309 11.9996C8.67306 9.69953 9.56393 7.49297 11.151 5.86215C12.7381 4.23132 14.8923 3.30883 17.1429 3.29629C15.6202 2.31617 13.8682 1.77121 12.0694 1.71815C10.2706 1.66509 8.49077 2.10589 6.91529 2.99462C5.33981 3.88336 4.0263 5.18752 3.11157 6.77129C2.19684 8.35506 1.71436 10.1605 1.71436 11.9996C1.71436 13.8387 2.19684 15.6441 3.11157 17.2279C4.0263 18.8116 5.33981 20.1158 6.91529 21.0045C8.49077 21.8933 10.2706 22.3341 12.0694 22.281C13.8682 22.228 15.6202 21.683 17.1429 20.7029C14.8923 20.6903 12.7381 19.7678 11.151 18.137C9.56393 16.5062 8.67306 14.2996 8.67309 11.9996Z" stroke="black" stroke-width="1.5" stroke-linecap="round" stroke-linejoin="round"/>
<path d="M18.1198 6.92578L19.6798 10.0286H22.7827L20.4513 12.4286L21.1884 15.8572L18.1198 14.1429L15.1884 15.8572L15.8055 12.4286L13.4741 10.0286H16.577L18.1198 6.92578Z" stroke="black" stroke-width="1.5" stroke-linecap="round" stroke-linejoin="round"/>
</g>
<defs>
<clipPath id="clip0_2483_2916">
<rect width="24" height="24" fill="white"/>
</clipPath>
</defs>
</svg>
