<svg width="20" height="20" viewBox="0 0 20 20" fill="none" xmlns="http://www.w3.org/2000/svg">
<path d="M12.7516 10.6496C13.8046 10.8639 14.8987 10.7332 15.8717 10.2769C16.8447 9.82053 17.6448 9.06286 18.1533 8.11614C18.6619 7.16942 18.8519 6.08404 18.6952 5.02086C18.5384 3.95767 18.0433 2.97328 17.2832 2.21357C16.5231 1.45385 15.5385 0.959259 14.4752 0.803085C13.412 0.64691 12.3267 0.837469 11.3802 1.34652C10.4338 1.85557 9.6765 2.65601 9.22067 3.62922C8.76484 4.60243 8.63471 5.69661 8.84955 6.74958M12.7516 10.6496L8.84955 6.75058L1.33655 15.3346C0.961271 15.7095 0.750282 16.2181 0.75 16.7485C0.749861 17.0112 0.801456 17.2713 0.901839 17.514C1.00222 17.7567 1.14943 17.9773 1.33505 18.1631C1.52068 18.3489 1.74108 18.4963 1.98369 18.597C2.22629 18.6976 2.48634 18.7495 2.74899 18.7496C3.27944 18.7499 3.78827 18.5395 4.16355 18.1646L12.7516 10.6496Z" stroke="black" stroke-width="1.5" stroke-linecap="round" stroke-linejoin="round"/>
</svg>
