<svg width="24" height="24" viewBox="0 0 24 24" fill="none" xmlns="http://www.w3.org/2000/svg">
<path d="M20 14.077C19.5431 13.6025 18.739 13.273 18 13.252M18 13.252C17.1208 13.2275 16.3337 13.641 16.3337 14.769C16.3337 16.846 20 15.8075 20 17.8845C20 19.0695 19.0241 19.5785 18 19.54M18 13.252V12M16 18.577C16.4299 19.172 17.2287 19.511 18 19.54M18 19.54V21" stroke="black" stroke-linecap="round" stroke-linejoin="round"/>
<path d="M5 19V13.4M5 13.4H10.1426C11.4278 13.4 14 13.4 14 9.2C14 5 11.4278 5 10.1426 5H5V13.4Z" stroke="black" stroke-width="1.5" stroke-linecap="round" stroke-linejoin="round"/>
</svg>
