<svg width="24" height="24" viewBox="0 0 24 24" fill="none" xmlns="http://www.w3.org/2000/svg">
<path d="M4 12C4 12.6333 4.071 13.2543 4.213 13.863C4.355 14.4717 4.56733 15.0423 4.85 15.575C4.98333 15.825 5.021 16.0917 4.963 16.375C4.905 16.6583 4.759 16.875 4.525 17.025C4.29167 17.1917 4.04167 17.2377 3.775 17.163C3.50833 17.0883 3.30833 16.9257 3.175 16.675C2.79167 15.975 2.5 15.2333 2.3 14.45C2.1 13.6667 2 12.85 2 12C2 11.15 2.1 10.329 2.3 9.537C2.5 8.745 2.79167 7.99933 3.175 7.3C3.30833 7.05 3.50833 6.89167 3.775 6.825C4.04167 6.75833 4.29167 6.80833 4.525 6.975C4.75833 7.125 4.90433 7.34167 4.963 7.625C5.02167 7.90833 4.984 8.175 4.85 8.425C4.56667 8.95833 4.35433 9.52933 4.213 10.138C4.07167 10.7467 4.00067 11.3673 4 12ZM12 18C10.3333 18 8.91667 17.4167 7.75 16.25C6.58333 15.0833 6 13.6667 6 12C6 10.3333 6.58333 8.91667 7.75 7.75C8.91667 6.58333 10.3333 6 12 6C13.6667 6 15.0833 6.58333 16.25 7.75C17.4167 8.91667 18 10.3333 18 12C18 13.6667 17.4167 15.0833 16.25 16.25C15.0833 17.4167 13.6667 18 12 18ZM12 16C13.1 16 14.0417 15.6083 14.825 14.825C15.6083 14.0417 16 13.1 16 12C16 10.9 15.6083 9.95833 14.825 9.175C14.0417 8.39167 13.1 8 12 8C10.9 8 9.95833 8.39167 9.175 9.175C8.39167 9.95833 8 10.9 8 12C8 13.1 8.39167 14.0417 9.175 14.825C9.95833 15.6083 10.9 16 12 16ZM20 12C20 11.3667 19.929 10.746 19.787 10.138C19.645 9.53 19.4327 8.959 19.15 8.425C19.0167 8.175 18.975 7.90833 19.025 7.625C19.075 7.34167 19.2167 7.125 19.45 6.975C19.6833 6.80833 19.9377 6.75833 20.213 6.825C20.4883 6.89167 20.6923 7.05 20.825 7.3C21.2083 8 21.5 8.746 21.7 9.538C21.9 10.33 22 11.1507 22 12C22 12.8493 21.9 13.666 21.7 14.45C21.5 15.234 21.2083 15.9757 20.825 16.675C20.6917 16.925 20.4877 17.0877 20.213 17.163C19.9383 17.2383 19.684 17.1923 19.45 17.025C19.2167 16.875 19.075 16.6583 19.025 16.375C18.975 16.0917 19.0167 15.825 19.15 15.575C19.4333 15.0417 19.646 14.471 19.788 13.863C19.93 13.255 20.0007 12.634 20 12Z" fill="black"/>
</svg>
