<svg width="24" height="24" viewBox="0 0 24 24" fill="none" xmlns="http://www.w3.org/2000/svg">
<path d="M15.3814 5.3023C12.7474 3.97255 9.49243 4.29505 7.15993 6.2698C6.66216 6.02413 6.09335 5.96316 5.55483 6.09776C5.01631 6.23236 4.54306 6.55378 4.21942 7.00476C3.89578 7.45573 3.74276 8.00696 3.78763 8.56023C3.8325 9.1135 4.07235 9.63287 4.46443 10.0258L13.9924 19.5538C14.3869 19.9479 14.909 20.1884 15.4649 20.232C16.0208 20.2755 16.574 20.1194 17.0251 19.7915C17.4761 19.4637 17.7954 18.9857 17.9255 18.4435C18.0557 17.9012 17.9881 17.3304 17.7349 16.8335C19.7074 14.4995 20.0269 11.246 18.6949 8.61355L21.0597 6.2473C21.2771 6.02983 21.4496 5.77166 21.5672 5.48755C21.6848 5.20343 21.7454 4.89892 21.7453 4.59141C21.7453 4.28389 21.6847 3.9794 21.567 3.69531C21.4493 3.41122 21.2768 3.15309 21.0593 2.93567C20.8418 2.71825 20.5837 2.5458 20.2995 2.42815C20.0154 2.3105 19.7109 2.24997 19.4034 2.25C19.0959 2.25003 18.7914 2.31064 18.5073 2.42835C18.2232 2.54606 17.9651 2.71858 17.7477 2.93605L15.3814 5.3023ZM8.32168 7.2598C9.47628 6.36407 10.9181 5.92043 12.3765 6.01214C13.8349 6.10384 15.2098 6.72458 16.2431 7.75789C17.2764 8.79119 17.8971 10.166 17.9888 11.6245C18.0805 13.0829 17.6369 14.5247 16.7412 15.6793L8.32168 7.2598ZM5.52493 7.77505C5.67791 7.62231 5.88376 7.53425 6.09988 7.52908C6.31599 7.52392 6.52582 7.60205 6.68593 7.7473L16.2717 17.3323C16.4256 17.4939 16.5091 17.7101 16.5037 17.9332C16.4983 18.1564 16.4044 18.3682 16.2428 18.5222C16.1628 18.5984 16.0685 18.6581 15.9654 18.6979C15.8623 18.7377 15.7524 18.7568 15.6419 18.7542C15.4187 18.7488 15.2069 18.6549 15.0529 18.4933L5.52493 8.9653C5.36701 8.80735 5.2783 8.59315 5.2783 8.3698C5.2783 8.14645 5.36701 7.93299 5.52493 7.77505ZM16.6729 6.1318L18.8089 3.99655C18.8871 3.91839 18.9799 3.8564 19.082 3.8141C19.1841 3.77181 19.2935 3.75004 19.4041 3.75004C19.5146 3.75004 19.624 3.77181 19.7261 3.8141C19.8282 3.8564 19.921 3.91839 19.9992 3.99655C20.0773 4.0747 20.1393 4.16748 20.1816 4.26959C20.2239 4.37171 20.2457 4.48115 20.2457 4.59167C20.2457 4.7022 20.2239 4.81164 20.1816 4.91375C20.1393 5.01586 20.0773 5.10864 19.9992 5.1868L17.8639 7.32205C17.5129 6.88185 17.1133 6.48258 16.6729 6.1318ZM5.78068 14.78C5.85231 14.7109 5.90945 14.6281 5.94875 14.5366C5.98806 14.4451 6.00875 14.3467 6.00961 14.2471C6.01048 14.1475 5.9915 14.0488 5.95379 13.9566C5.91608 13.8644 5.86039 13.7807 5.78997 13.7103C5.71955 13.6398 5.63581 13.5841 5.54364 13.5464C5.45147 13.5087 5.35271 13.4897 5.25313 13.4906C5.15354 13.4915 5.05513 13.5122 4.96362 13.5515C4.87212 13.5908 4.78936 13.6479 4.72018 13.7195L2.47018 15.9695C2.39854 16.0387 2.34141 16.1215 2.3021 16.213C2.26279 16.3045 2.2421 16.4029 2.24124 16.5025C2.24037 16.6021 2.25935 16.7008 2.29706 16.793C2.33477 16.8852 2.39046 16.9689 2.46088 17.0393C2.5313 17.1098 2.61504 17.1655 2.70721 17.2032C2.79938 17.2409 2.89814 17.2599 2.99773 17.259C3.09731 17.2581 3.19573 17.2374 3.28723 17.1981C3.37873 17.1588 3.46149 17.1017 3.53068 17.03L5.78068 14.78ZM8.03068 15.9695C8.17128 16.1102 8.25027 16.3009 8.25027 16.4998C8.25027 16.6987 8.17128 16.8894 8.03068 17.03L5.78068 19.28C5.63923 19.4167 5.44977 19.4923 5.25313 19.4906C5.05648 19.4888 4.86837 19.41 4.72931 19.2709C4.59026 19.1319 4.51138 18.9437 4.50967 18.7471C4.50796 18.5505 4.58356 18.361 4.72018 18.2195L6.97018 15.9695C7.11082 15.8289 7.30155 15.75 7.50043 15.75C7.6993 15.75 7.89003 15.8289 8.03068 15.9695ZM10.2807 19.28C10.4173 19.1386 10.4929 18.9491 10.4912 18.7525C10.4895 18.5559 10.4106 18.3677 10.2715 18.2287C10.1325 18.0896 9.94437 18.0108 9.74773 18.009C9.55108 18.0073 9.36163 18.0829 9.22018 18.2195L6.97018 20.4695C6.89854 20.5387 6.84141 20.6215 6.8021 20.713C6.76279 20.8045 6.7421 20.9029 6.74124 21.0025C6.74037 21.1021 6.75935 21.2008 6.79706 21.293C6.83477 21.3852 6.89046 21.4689 6.96088 21.5393C7.0313 21.6098 7.11504 21.6655 7.20721 21.7032C7.29938 21.7409 7.39814 21.7599 7.49773 21.759C7.59731 21.7581 7.69573 21.7374 7.78723 21.6981C7.87873 21.6588 7.96149 21.6017 8.03068 21.53L10.2807 19.28Z" fill="black"/>
</svg>
