<svg width="18" height="22" viewBox="0 0 18 22" fill="none" xmlns="http://www.w3.org/2000/svg">
<path d="M0.75 8.75C0.75 4.979 0.75 3.093 1.922 1.922C3.094 0.751 4.979 0.75 8.75 0.75C12.521 0.75 14.407 0.75 15.578 1.922C16.749 3.094 16.75 4.979 16.75 8.75V12.75C16.75 16.521 16.75 18.407 15.578 19.578C14.406 20.749 12.521 20.75 8.75 20.75C4.979 20.75 3.093 20.75 1.922 19.578C0.751 18.406 0.75 16.521 0.75 12.75V8.75Z" stroke="black" stroke-width="1.5"/>
<path d="M10.75 6.25C10.75 6.78043 10.5393 7.28914 10.1642 7.66421C9.78914 8.03929 9.28043 8.25 8.75 8.25C8.21957 8.25 7.71086 8.03929 7.33579 7.66421C6.96071 7.28914 6.75 6.78043 6.75 6.25C6.75 5.71957 6.96071 5.21086 7.33579 4.83579C7.71086 4.46071 8.21957 4.25 8.75 4.25C9.28043 4.25 9.78914 4.46071 10.1642 4.83579C10.5393 5.21086 10.75 5.71957 10.75 6.25ZM11.75 14.25C11.75 15.0456 11.4339 15.8087 10.8713 16.3713C10.3087 16.9339 9.54565 17.25 8.75 17.25C7.95435 17.25 7.19129 16.9339 6.62868 16.3713C6.06607 15.8087 5.75 15.0456 5.75 14.25C5.75 13.4544 6.06607 12.6913 6.62868 12.1287C7.19129 11.5661 7.95435 11.25 8.75 11.25C9.54565 11.25 10.3087 11.5661 10.8713 12.1287C11.4339 12.6913 11.75 13.4544 11.75 14.25Z" stroke="black" stroke-width="1.5"/>
</svg>
