<svg width="17" height="16" viewBox="0 0 17 16" fill="none" xmlns="http://www.w3.org/2000/svg">
<path d="M3.16667 9.5C1.5301 10.1295 0.5 11.0443 0.5 12.0623C0.5 13.9607 4.08171 15.5 8.5 15.5C12.9183 15.5 16.5 13.9607 16.5 12.0623C16.5 11.5134 16.2006 10.9947 15.6684 10.5344" stroke="black" stroke-linecap="round" stroke-linejoin="round"/>
<path d="M8.5 0.5C7 2.26025 7 5.11475 8.5 6.875C10 8.63525 10 11.4898 8.5 13.25M4.375 2C2.875 3.34625 2.875 5.52875 4.375 6.875C5.875 8.22125 5.875 10.4038 4.375 11.75M12.625 2C11.125 3.34625 11.125 5.52875 12.625 6.875C14.125 8.22125 14.125 10.4038 12.625 11.75" stroke="black" stroke-linecap="round" stroke-linejoin="round"/>
</svg>
