<svg width="17" height="17" viewBox="0 0 17 17" fill="none" xmlns="http://www.w3.org/2000/svg">
<path d="M1.73126 2.49167C1.73126 2.11815 1.87963 1.75994 2.14375 1.49582C2.40786 1.23171 2.76608 1.08333 3.13959 1.08333C3.5131 1.08333 3.87132 1.23171 4.13543 1.49582C4.39955 1.75994 4.54792 2.11815 4.54792 2.49167V8.2992C4.89459 8.3317 5.25599 8.3876 5.63126 8.47123V6.93333H12.3479V10.4251C12.7114 10.4138 13.0735 10.3756 13.4313 10.3107V2.49167C13.4313 1.83084 13.1687 1.19707 12.7015 0.729792C12.2342 0.262514 11.6004 0 10.9396 0C10.2788 0 9.64499 0.262514 9.17771 0.729792C8.71044 1.19707 8.44792 1.83084 8.44792 2.49167V2.925C8.44792 3.06866 8.50499 3.20643 8.60657 3.30802C8.70815 3.4096 8.84593 3.46667 8.98959 3.46667C9.13325 3.46667 9.27102 3.4096 9.37261 3.30802C9.47419 3.20643 9.53126 3.06866 9.53126 2.925V2.49167C9.53126 2.11815 9.67963 1.75994 9.94375 1.49582C10.2079 1.23171 10.5661 1.08333 10.9396 1.08333C11.3131 1.08333 11.6713 1.23171 11.9354 1.49582C12.1995 1.75994 12.3479 2.11815 12.3479 2.49167V5.85H5.63126V2.49167C5.63126 1.83084 5.36874 1.19707 4.90146 0.729792C4.43419 0.262514 3.80042 0 3.13959 0C2.47876 0 1.84499 0.262514 1.37772 0.729792C0.910437 1.19707 0.647923 1.83084 0.647923 2.49167V2.925C0.647923 3.06866 0.704991 3.20643 0.806573 3.30802C0.908156 3.4096 1.04593 3.46667 1.18959 3.46667C1.33325 3.46667 1.47102 3.4096 1.57261 3.30802C1.67419 3.20643 1.73126 3.06866 1.73126 2.925V2.49167ZM7.38799 11.1596C3.27999 9.05103 1.00672 11.0058 0.90359 11.0946L0.902723 11.0951C0.681723 11.2935 0.33939 11.2762 0.140056 11.0561C0.0442299 10.9508 -0.00593808 10.8119 0.000561145 10.6697C0.00706037 10.5276 0.0696959 10.3938 0.174723 10.2977C0.291723 10.1894 3.07329 7.7233 7.89066 10.1981C12.1928 12.4102 15.5113 10.5261 15.6499 10.4442C15.9056 10.293 16.2393 10.3792 16.3909 10.634C16.5422 10.8884 16.4603 11.2203 16.2003 11.3711C16.1006 11.4318 14.5103 12.35 12.1105 12.35C10.4478 12.3054 8.87259 11.924 7.38799 11.1596ZM0.90359 14.9946C1.00672 14.9058 3.28042 12.951 7.38799 15.0596C8.87259 15.824 10.4473 16.2054 12.1105 16.25C14.5103 16.25 16.1002 15.3313 16.1998 15.2711C16.4598 15.1203 16.5422 14.7884 16.3905 14.5336C16.3167 14.4109 16.1976 14.3222 16.0589 14.2868C15.9202 14.2513 15.7731 14.272 15.6495 14.3442C15.5108 14.4261 12.1928 16.3102 7.89066 14.0985C3.07329 11.6233 0.292156 14.0898 0.175156 14.1973C0.123023 14.2449 0.0807714 14.3022 0.0508142 14.3661C0.0208571 14.43 0.00378117 14.4992 0.000561972 14.5697C-0.00265723 14.6402 0.00804327 14.7107 0.0320523 14.777C0.0560613 14.8434 0.0929085 14.9044 0.14049 14.9565C0.339823 15.1762 0.682156 15.1935 0.903156 14.9955L0.90359 14.9946Z" fill="black"/>
</svg>
