<svg width="24" height="24" viewBox="0 0 24 24" fill="none" xmlns="http://www.w3.org/2000/svg">
<path d="M20 13.6H13.6V20H20V13.6ZM7.6 4L11.2 10.4H4L7.6 4ZM16.8 10.4C17.6487 10.4 18.4626 10.0629 19.0627 9.46274C19.6629 8.86263 20 8.04869 20 7.2C20 6.35131 19.6629 5.53737 19.0627 4.93726C18.4626 4.33714 17.6487 4 16.8 4C15.9513 4 15.1374 4.33714 14.5373 4.93726C13.9371 5.53737 13.6 6.35131 13.6 7.2C13.6 8.04869 13.9371 8.86263 14.5373 9.46274C15.1374 10.0629 15.9513 10.4 16.8 10.4Z" stroke="black" stroke-width="1.3" stroke-linejoin="round"/>
<path d="M4 13.5996L10.4 19.9996M10.4 13.5996L4 19.9996" stroke="black" stroke-width="1.3" stroke-linecap="round" stroke-linejoin="round"/>
</svg>
