<svg width="24" height="24" viewBox="0 0 24 24" fill="none" xmlns="http://www.w3.org/2000/svg">
<path d="M6.00025 7.99981L16.0002 17.9998M2.48825 18.1868C4.27225 17.0648 6.99925 15.3868 7.40025 13.6848C7.52525 13.1548 7.24525 12.6418 7.00225 12.1548C5.83125 9.79681 5.80425 7.05181 7.54625 5.31281C10.5842 2.27881 17.1062 0.494813 20.3072 3.69281C23.5052 6.88581 21.7222 13.4008 18.6842 16.4348C16.9422 18.1748 14.1942 18.1488 11.8342 16.9788C11.3462 16.7368 10.8312 16.4558 10.3012 16.5808C8.59625 16.9818 6.91525 19.7048 5.79125 21.4858C4.57125 23.4208 0.63425 19.3528 2.48825 18.1868Z" stroke="black" stroke-width="1.5" stroke-linejoin="round"/>
</svg>
