<svg width="24" height="24" viewBox="0 0 24 24" fill="none" xmlns="http://www.w3.org/2000/svg">
<path d="M2.5 12V20C2.5 20.2652 2.60536 20.5196 2.79289 20.7071C2.98043 20.8946 3.23478 21 3.5 21H20.5C20.7652 21 21.0196 20.8946 21.2071 20.7071C21.3946 20.5196 21.5 20.2652 21.5 20V12M21.5 15.5H2.5" stroke="black" stroke-width="1.5" stroke-linecap="round" stroke-linejoin="round"/>
<path d="M16 11.5C16 10.4391 15.5786 9.42172 14.8284 8.67157C14.0783 7.92143 13.0609 7.5 12 7.5C10.9391 7.5 9.92172 7.92143 9.17157 8.67157C8.42143 9.42172 8 10.4391 8 11.5" stroke="black" stroke-width="1.5" stroke-linecap="round"/>
<path d="M12 3V4M17.707 5L17 5.707M6 5L6.707 5.707" stroke="black" stroke-width="1.5" stroke-linecap="round" stroke-linejoin="round"/>
</svg>
