<svg width="24" height="24" viewBox="0 0 24 24" fill="none" xmlns="http://www.w3.org/2000/svg">
<path d="M18.555 14.505C18.6889 14.3578 18.7589 14.1634 18.7495 13.9646C18.7402 13.7659 18.6522 13.5789 18.505 13.445C18.3578 13.3111 18.1634 13.2411 17.9646 13.2505C17.7659 13.2598 17.5789 13.3478 17.445 13.495L18.555 14.505ZM21.243 10.743L21.777 10.217L21.773 10.212L21.243 10.743ZM21.453 12.026C21.5221 12.0963 21.6043 12.1522 21.695 12.1907C21.7857 12.2292 21.8831 12.2494 21.9816 12.2502C22.0802 12.2511 22.1779 12.2325 22.2692 12.1956C22.3606 12.1586 22.4437 12.1041 22.514 12.035C22.5843 11.9659 22.6402 11.8837 22.6787 11.793C22.7172 11.7023 22.7374 11.6049 22.7382 11.5064C22.7391 11.4078 22.7205 11.3101 22.6836 11.2188C22.6466 11.1274 22.5921 11.0443 22.523 10.974L21.453 12.026ZM5.733 19.043C5.53409 19.043 5.34332 19.122 5.20267 19.2627C5.06202 19.4033 4.983 19.5941 4.983 19.793C4.983 19.9919 5.06202 20.1827 5.20267 20.3233C5.34332 20.464 5.53409 20.543 5.733 20.543V19.043ZM3.5 15.75C3.30109 15.75 3.11032 15.829 2.96967 15.9697C2.82902 16.1103 2.75 16.3011 2.75 16.5C2.75 16.6989 2.82902 16.8897 2.96967 17.0303C3.11032 17.171 3.30109 17.25 3.5 17.25V15.75ZM8.192 3.356C8.26234 3.17367 8.25874 2.97108 8.18195 2.79136C8.10516 2.61164 7.96126 2.469 7.78087 2.3938C7.60049 2.31859 7.39787 2.31677 7.21617 2.38872C7.03446 2.46066 6.88801 2.6007 6.808 2.779L8.192 3.356ZM6.808 15.289C6.88653 15.4697 7.03304 15.6123 7.21584 15.6859C7.39865 15.7594 7.60306 15.7581 7.7849 15.6822C7.96673 15.6062 8.11137 15.4618 8.18755 15.2801C8.26373 15.0983 8.26533 14.8939 8.192 14.711L6.808 15.289ZM11 5.75C10.8011 5.75 10.6103 5.82902 10.4697 5.96967C10.329 6.11032 10.25 6.30109 10.25 6.5C10.25 6.69891 10.329 6.88968 10.4697 7.03033C10.6103 7.17098 10.8011 7.25 11 7.25V5.75ZM19.876 16.916C19.9301 16.9991 20.0002 17.0707 20.0821 17.1266C20.1641 17.1824 20.2563 17.2215 20.3534 17.2415C20.4506 17.2615 20.5507 17.262 20.6481 17.243C20.7455 17.224 20.8381 17.1859 20.9206 17.1309C21.0031 17.0759 21.0739 17.005 21.1289 16.9225C21.1838 16.8399 21.2219 16.7473 21.2408 16.6499C21.2597 16.5525 21.2591 16.4524 21.2391 16.3553C21.219 16.2581 21.1799 16.1659 21.124 16.084L19.876 16.916ZM12 21.25C9.54675 21.25 7.19397 20.2754 5.45926 18.5407C3.72455 16.806 2.75 14.4533 2.75 12H1.25C1.25 17.937 6.063 22.75 12 22.75V21.25ZM21.25 12C21.25 14.4533 20.2754 16.806 18.5407 18.5407C16.806 20.2754 14.4533 21.25 12 21.25V22.75C17.937 22.75 22.75 17.937 22.75 12H21.25ZM12 2.75C14.4533 2.75 16.806 3.72455 18.5407 5.45926C20.2754 7.19397 21.25 9.54675 21.25 12H22.75C22.75 6.063 17.937 1.25 12 1.25V2.75ZM12 1.25C6.063 1.25 1.25 6.063 1.25 12H2.75C2.75 9.54675 3.72455 7.19397 5.45926 5.45926C7.19397 3.72455 9.54675 2.75 12 2.75V1.25ZM12 12.75H12.092V11.25H12V12.75ZM11.408 11.54L10.978 12.093L12.162 13.013L12.592 12.46L11.408 11.54ZM11.308 1.712L10.622 3.357L12.007 3.934L12.692 2.288L11.308 1.712ZM17.445 13.496L17.154 13.816L18.264 14.825L18.555 14.505L17.445 13.496ZM20.708 11.269L21.453 12.026L22.523 10.974L21.777 10.217L20.708 11.269ZM17.154 13.816C14.284 16.973 9.961 19.043 5.733 19.043V20.543C10.421 20.543 15.137 18.266 18.264 14.825L17.154 13.816ZM10.622 3.357C10.0147 4.81356 9.76521 6.39439 9.8943 7.96718C10.0234 9.53997 10.5274 11.059 11.364 12.397L12.636 11.602C11.9262 10.4671 11.4986 9.17867 11.389 7.84457C11.2794 6.51048 11.4909 5.16954 12.006 3.934L10.622 3.357ZM10.978 12.093C10.0924 13.2319 8.95837 14.1534 7.66236 14.7872C6.36636 15.421 4.94268 15.7503 3.5 15.75V17.25C6.886 17.25 10.083 15.687 12.162 13.014L10.978 12.093ZM6.808 2.779C5.97767 4.75984 5.55004 6.88617 5.55004 9.034C5.55004 11.1818 5.97767 13.3082 6.808 15.289L8.192 14.711C7.438 12.9131 7.04967 10.9831 7.04967 9.0335C7.04967 7.08392 7.438 5.15387 8.192 3.356L6.808 2.779ZM11 7.25C14.643 7.25 18.136 8.697 20.712 11.273L21.773 10.213C18.9156 7.35601 15.0407 5.75069 11 5.75V7.25ZM12.092 12.75C13.6321 12.7504 15.1482 13.1309 16.506 13.8576C17.8639 14.5843 19.0214 15.6348 19.876 16.916L21.124 16.084C20.1324 14.5973 18.7893 13.3783 17.2138 12.5351C15.6383 11.6919 13.879 11.2505 12.092 11.25V12.75Z" fill="black"/>
</svg>
