<svg width="20" height="22" viewBox="0 0 20 22" fill="none" xmlns="http://www.w3.org/2000/svg">
<path d="M3.75 18.75V20.75M15.75 18.75V20.75M9.75 18.75V0.75M6.75 8.75V9.75M12.75 8.75V9.75M0.75 12.75V6.75C0.75 3.922 0.75 2.507 1.68 1.629C2.61 0.751 4.108 0.75 7.103 0.75H12.397C15.392 0.75 16.889 0.75 17.82 1.629C18.75 2.507 18.75 3.922 18.75 6.75V12.75C18.75 15.578 18.75 16.993 17.82 17.871C16.89 18.749 15.392 18.75 12.397 18.75H7.103C4.108 18.75 2.611 18.75 1.68 17.871C0.75 16.993 0.75 15.578 0.75 12.75Z" stroke="black" stroke-width="1.5" stroke-linecap="round" stroke-linejoin="round"/>
</svg>
