<svg width="24" height="24" viewBox="0 0 24 24" fill="none" xmlns="http://www.w3.org/2000/svg">
<path d="M12 8.25C11.3106 8.25 10.6279 8.3858 9.99091 8.64963C9.35395 8.91347 8.7752 9.30018 8.28769 9.78769C7.80018 10.2752 7.41347 10.854 7.14963 11.4909C6.8858 12.1279 6.75 12.8106 6.75 13.5C6.75 14.1894 6.8858 14.8721 7.14963 15.5091C7.41347 16.146 7.80018 16.7248 8.28769 17.2123C8.7752 17.6998 9.35395 18.0865 9.99091 18.3504C10.6279 18.6142 11.3106 18.75 12 18.75C13.3924 18.75 14.7277 18.1969 15.7123 17.2123C16.6969 16.2277 17.25 14.8924 17.25 13.5C17.25 12.1076 16.6969 10.7723 15.7123 9.78769C14.7277 8.80312 13.3924 8.25 12 8.25ZM8.25 13.5C8.24948 12.5287 8.62587 11.595 9.29992 10.8957C9.97397 10.1963 10.8931 9.78574 11.8638 9.75046C12.8345 9.71518 13.781 10.0579 14.504 10.7065C15.2271 11.3551 15.6703 12.2589 15.7402 13.2277C15.5873 13.3522 15.4177 13.4544 15.2362 13.5315C14.7158 13.7565 13.857 13.89 12.3757 13.5195C10.7227 13.107 9.60825 13.3523 8.82975 13.8353C8.63475 13.9567 8.466 14.0895 8.31975 14.2222C8.27321 13.9843 8.24985 13.7424 8.25 13.5ZM8.625 6C8.625 6.29837 8.50647 6.58452 8.2955 6.7955C8.08452 7.00647 7.79837 7.125 7.5 7.125C7.20163 7.125 6.91548 7.00647 6.7045 6.7955C6.49353 6.58452 6.375 6.29837 6.375 6C6.375 5.70163 6.49353 5.41548 6.7045 5.2045C6.91548 4.99353 7.20163 4.875 7.5 4.875C7.79837 4.875 8.08452 4.99353 8.2955 5.2045C8.50647 5.41548 8.625 5.70163 8.625 6ZM12.75 5.25C12.5511 5.25 12.3603 5.32902 12.2197 5.46967C12.079 5.61032 12 5.80109 12 6C12 6.19891 12.079 6.38968 12.2197 6.53033C12.3603 6.67098 12.5511 6.75 12.75 6.75H16.5C16.6989 6.75 16.8897 6.67098 17.0303 6.53033C17.171 6.38968 17.25 6.19891 17.25 6C17.25 5.80109 17.171 5.61032 17.0303 5.46967C16.8897 5.32902 16.6989 5.25 16.5 5.25H12.75ZM5.625 2.25C4.72989 2.25 3.87145 2.60558 3.23851 3.23851C2.60558 3.87145 2.25 4.72989 2.25 5.625V18.375C2.25 19.2701 2.60558 20.1285 3.23851 20.7615C3.87145 21.3944 4.72989 21.75 5.625 21.75H18.375C19.2701 21.75 20.1285 21.3944 20.7615 20.7615C21.3944 20.1285 21.75 19.2701 21.75 18.375V5.625C21.75 4.72989 21.3944 3.87145 20.7615 3.23851C20.1285 2.60558 19.2701 2.25 18.375 2.25H5.625ZM3.75 5.625C3.75 5.12772 3.94754 4.65081 4.29917 4.29917C4.65081 3.94754 5.12772 3.75 5.625 3.75H18.375C18.8723 3.75 19.3492 3.94754 19.7008 4.29917C20.0525 4.65081 20.25 5.12772 20.25 5.625V18.375C20.25 18.8723 20.0525 19.3492 19.7008 19.7008C19.3492 20.0525 18.8723 20.25 18.375 20.25H5.625C5.12772 20.25 4.65081 20.0525 4.29917 19.7008C3.94754 19.3492 3.75 18.8723 3.75 18.375V5.625Z" fill="black"/>
</svg>
